<svg width="64" height="64" viewBox="0 0 64 64" fill="none" xmlns="http://www.w3.org/2000/svg">
<path d="M63.985 57.087C63.985 58.9159 63.2585 60.67 61.9652 61.9632C60.672 63.2565 58.9179 63.983 57.089 63.983H6.896C5.06715 63.9827 3.31328 63.2561 2.02008 61.9629C0.726891 60.6697 0.000265147 58.9159 0 57.087L0 6.896C0.000530155 5.06723 0.727241 3.31351 2.02038 2.02038C3.31351 0.727241 5.06723 0.000530155 6.896 0H57.088C58.9169 0.000265147 60.6707 0.726891 61.9639 2.02008C63.2571 3.31328 63.9837 5.06715 63.984 6.896V57.087H63.985Z" fill="#37B34A"/>
<path d="M46.14 9.38699C41.426 14.103 36.71 18.819 32 23.537C27.284 18.823 22.568 14.106 17.85 9.38699C12.396 3.93199 3.93799 12.387 9.39299 17.846C14.107 22.558 18.825 27.276 23.533 31.986C18.821 36.7 14.102 41.418 9.39299 46.126C3.93999 51.581 12.393 60.036 17.85 54.586C22.564 49.869 27.28 45.153 32 40.436C36.716 45.152 41.428 49.866 46.14 54.586C51.595 60.038 60.05 51.576 54.6 46.128C49.883 41.412 45.167 36.698 40.45 31.978L54.6 17.828C60.052 12.375 51.6 3.91599 46.14 9.36999" fill="white"/>
</svg>
